<svg width="400" height="241" viewBox="0 0 410 250" fill="red" xmlns="http://www.w3.org/2000/svg%22%3E">
<path d="M323 240C332.98 240 342.863 238.034 352.084 234.215C361.305 230.395 369.683 224.797 376.74 217.74C383.797 210.683 389.395 202.305 393.215 193.084C397.034 183.863 399 173.98 399 164C399 154.02 397.034 144.137 393.215 134.916C389.395 125.695 383.797 117.317 376.74 110.26C369.683 103.203 361.305 97.6045 352.084 93.7852C342.863 89.9658 332.98 88 323 88" stroke="blue" stroke-width="2"/>
<line x1="323" y1="240" x2="62" y2="240" stroke="blue" stroke-width="2"/>
<path d="M62 118C53.9894 118 46.0572 119.578 38.6563 122.643C31.2554 125.709 24.5309 130.202 18.8665 135.866C13.2021 141.531 8.70888 148.255 5.64335 155.656C2.57781 163.057 1 170.989 1 179C1 187.011 2.57781 194.943 5.64335 202.344C8.70889 209.745 13.2021 216.469 18.8665 222.134C24.5309 227.798 31.2555 232.291 38.6563 235.357C46.0572 238.422 53.9894 240 62 240" stroke="blue" stroke-width="2"/>
<path d="M324 87C324 66.7523 316.856 47.1538 303.826 31.6559C290.796 16.158 272.715 5.75452 252.768 2.27751C232.821 -1.19949 212.287 2.47297 194.782 12.6482C177.277 22.8234 163.923 38.8488 157.072 57.9023" stroke="blue" stroke-width="2"/>
<path d="M157.182 57.1683C147.327 50.2099 135.629 46.3303 123.568 46.0202C111.507 45.71 99.6256 48.9832 89.4252 55.4259C79.2249 61.8686 71.164 71.1914 66.2621 82.2153C61.3601 93.2392 59.8372 105.469 61.8859 117.359" stroke="blue" stroke-width="2"/>
</svg>