<svg xmlns="http://www.w3.org/2000/svg"
     width="7.77778in" height="2.77778in"
     viewBox="0 0 700 250">
     <defs>
        <linearGradient id="grad1" x1="0%" y1="0%" x2="0%" y2="100%">
          <stop offset="0%" stop-color="skyblue" />
          <stop offset="95%" stop-color="skyblue" />
          <stop offset="100%" stop-color="deepskyblue" />
        </linearGradient>
    </defs>
  <path id="Selection #1"
        fill="url(#grad1)" stroke="silver" stroke-width="2"
        d="M 554.94,89.00
           C 653.85,89.18 711.62,155.81 662.13,205.00
             633.63,233.33 588.88,241.96 536.39,242.00
             536.39,242.00 121.45,242.00 121.45,242.00
             81.59,241.96 45.56,232.19 25.37,211.00
             -12.90,170.81 33.52,119.14 113.01,119.00
             102.64,84.67 149.01,48.42 209.16,48.00
             233.50,47.83 252.76,49.31 273.25,58.00
             286.29,40.05 305.33,25.56 333.98,15.45
             389.07,-3.98 464.46,1.19 511.02,27.17
             538.90,42.72 554.82,66.45 554.94,89.00 Z" />
</svg>
 