<svg width="1048" height="400" viewBox="0 0 1048 400" fill="none" xmlns="http://www.w3.org/2000/svg">
<path d="M991.289 165.698C991.289 235.825 1013.91 320.94 813.47 320.94C613.031 320.94 265.435 235.825 265.435 165.698C265.435 95.5715 457.544 0 657.984 0C858.423 0 991.289 95.5715 991.289 165.698Z" fill="#EEEEEE"/>
<path d="M991.289 165.698C991.289 235.825 1013.91 320.94 813.47 320.94C613.031 320.94 265.435 235.825 265.435 165.698C265.435 95.5715 457.544 0 657.984 0C858.423 0 991.289 95.5715 991.289 165.698Z" fill="url(#paint0_linear)"/>
<path d="M991.289 165.698C991.289 235.825 1013.91 320.94 813.47 320.94C613.031 320.94 265.435 235.825 265.435 165.698C265.435 95.5715 457.544 0 657.984 0C858.423 0 991.289 95.5715 991.289 165.698Z" fill="url(#paint1_linear)"/>
<path d="M991.289 165.698C991.289 235.825 1013.91 320.94 813.47 320.94C613.031 320.94 265.435 235.825 265.435 165.698C265.435 95.5715 457.544 0 657.984 0C858.423 0 991.289 95.5715 991.289 165.698Z" fill="url(#paint2_linear)"/>
<path d="M991.289 165.698C991.289 235.825 1013.91 320.94 813.47 320.94C613.031 320.94 265.435 235.825 265.435 165.698C265.435 95.5715 457.544 0 657.984 0C858.423 0 991.289 95.5715 991.289 165.698Z" fill="url(#paint3_linear)"/>
<path d="M1004.44 333.364C1004.44 366.853 837.621 394.001 631.84 394.001C426.058 394.001 261.095 323.51 261.095 290.021C261.095 256.532 426.058 246.029 631.84 246.029C837.621 246.029 1004.44 299.875 1004.44 333.364Z" fill="#EEEEEE"/>
<path d="M1004.44 333.364C1004.44 366.853 837.621 394.001 631.84 394.001C426.058 394.001 261.095 323.51 261.095 290.021C261.095 256.532 426.058 246.029 631.84 246.029C837.621 246.029 1004.44 299.875 1004.44 333.364Z" fill="url(#paint4_linear)"/>
<path d="M1004.44 333.364C1004.44 366.853 837.621 394.001 631.84 394.001C426.058 394.001 261.095 323.51 261.095 290.021C261.095 256.532 426.058 246.029 631.84 246.029C837.621 246.029 1004.44 299.875 1004.44 333.364Z" fill="url(#paint5_linear)"/>
<path d="M1004.44 333.364C1004.44 366.853 837.621 394.001 631.84 394.001C426.058 394.001 261.095 323.51 261.095 290.021C261.095 256.532 426.058 246.029 631.84 246.029C837.621 246.029 1004.44 299.875 1004.44 333.364Z" fill="url(#paint6_linear)"/>
<path d="M1004.44 333.364C1004.44 366.853 837.621 394.001 631.84 394.001C426.058 394.001 261.095 323.51 261.095 290.021C261.095 256.532 426.058 246.029 631.84 246.029C837.621 246.029 1004.44 299.875 1004.44 333.364Z" fill="url(#paint7_linear)"/>
<path d="M397.179 310.897C397.179 353.415 301.253 387.882 182.921 387.882C64.5896 387.882 0 321.218 0 278.7C0 215.807 64.5896 201.214 182.921 201.214C301.253 201.214 397.179 268.379 397.179 310.897Z" fill="#EEEEEE"/>
<path d="M397.179 310.897C397.179 353.415 301.253 387.882 182.921 387.882C64.5896 387.882 0 321.218 0 278.7C0 215.807 64.5896 201.214 182.921 201.214C301.253 201.214 397.179 268.379 397.179 310.897Z" fill="url(#paint8_linear)"/>
<path d="M397.179 310.897C397.179 353.415 301.253 387.882 182.921 387.882C64.5896 387.882 0 321.218 0 278.7C0 215.807 64.5896 201.214 182.921 201.214C301.253 201.214 397.179 268.379 397.179 310.897Z" fill="url(#paint9_linear)"/>
<path d="M397.179 310.897C397.179 353.415 301.253 387.882 182.921 387.882C64.5896 387.882 0 321.218 0 278.7C0 215.807 64.5896 201.214 182.921 201.214C301.253 201.214 397.179 268.379 397.179 310.897Z" fill="url(#paint10_linear)"/>
<path d="M397.179 310.897C397.179 353.415 301.253 387.882 182.921 387.882C64.5896 387.882 0 321.218 0 278.7C0 215.807 64.5896 201.214 182.921 201.214C301.253 201.214 397.179 268.379 397.179 310.897Z" fill="url(#paint11_linear)"/>
<path d="M476.082 213.035C476.082 255.553 379.829 290.021 261.095 290.021C142.361 290.021 46.1081 255.553 46.1081 213.035C46.1081 170.517 125.599 120.553 244.333 120.553C363.068 120.553 476.082 170.517 476.082 213.035Z" fill="#EEEEEE"/>
<path d="M476.082 213.035C476.082 255.553 379.829 290.021 261.095 290.021C142.361 290.021 46.1081 255.553 46.1081 213.035C46.1081 170.517 125.599 120.553 244.333 120.553C363.068 120.553 476.082 170.517 476.082 213.035Z" fill="url(#paint12_linear)"/>
<path d="M476.082 213.035C476.082 255.553 379.829 290.021 261.095 290.021C142.361 290.021 46.1081 255.553 46.1081 213.035C46.1081 170.517 125.599 120.553 244.333 120.553C363.068 120.553 476.082 170.517 476.082 213.035Z" fill="url(#paint13_linear)"/>
<path d="M476.082 213.035C476.082 255.553 379.829 290.021 261.095 290.021C142.361 290.021 46.1081 255.553 46.1081 213.035C46.1081 170.517 125.599 120.553 244.333 120.553C363.068 120.553 476.082 170.517 476.082 213.035Z" fill="url(#paint14_linear)"/>
<path d="M476.082 213.035C476.082 255.553 379.829 290.021 261.095 290.021C142.361 290.021 46.1081 255.553 46.1081 213.035C46.1081 170.517 125.599 120.553 244.333 120.553C363.068 120.553 476.082 170.517 476.082 213.035Z" fill="url(#paint15_linear)"/>
<path d="M46.1081 278.7C46.1081 219.82 67.9713 278.7 46.1081 303.018L978.933 193.539C1017.97 193.539 1039.19 276.237 1039.19 303.018C1039.19 314.04 1031.45 331.399 1021.33 348.432C998.631 386.629 956.07 399.992 911.637 399.975L182.921 387.882L67.9713 359.508C42.4643 353.509 46.1081 307.719 46.1081 278.7Z" fill="#EEEEEE"/>
<path d="M46.1081 278.7C46.1081 219.82 67.9713 278.7 46.1081 303.018L978.933 193.539C1017.97 193.539 1039.19 276.237 1039.19 303.018C1039.19 314.04 1031.45 331.399 1021.33 348.432C998.631 386.629 956.07 399.992 911.637 399.975L182.921 387.882L67.9713 359.508C42.4643 353.509 46.1081 307.719 46.1081 278.7Z" fill="url(#paint16_linear)"/>
<path d="M46.1081 278.7C46.1081 219.82 67.9713 278.7 46.1081 303.018L978.933 193.539C1017.97 193.539 1039.19 276.237 1039.19 303.018C1039.19 314.04 1031.45 331.399 1021.33 348.432C998.631 386.629 956.07 399.992 911.637 399.975L182.921 387.882L67.9713 359.508C42.4643 353.509 46.1081 307.719 46.1081 278.7Z" fill="url(#paint17_linear)"/>
<path d="M46.1081 278.7C46.1081 219.82 67.9713 278.7 46.1081 303.018L978.933 193.539C1017.97 193.539 1039.19 276.237 1039.19 303.018C1039.19 314.04 1031.45 331.399 1021.33 348.432C998.631 386.629 956.07 399.992 911.637 399.975L182.921 387.882L67.9713 359.508C42.4643 353.509 46.1081 307.719 46.1081 278.7Z" fill="url(#paint18_linear)"/>
<path d="M46.1081 278.7C46.1081 219.82 67.9713 278.7 46.1081 303.018L978.933 193.539C1017.97 193.539 1039.19 276.237 1039.19 303.018C1039.19 314.04 1031.45 331.399 1021.33 348.432C998.631 386.629 956.07 399.992 911.637 399.975L182.921 387.882L67.9713 359.508C42.4643 353.509 46.1081 307.719 46.1081 278.7Z" fill="url(#paint19_linear)"/>
<path d="M1047.18 254.592C1039.19 443 858.423 319.79 657.984 319.79C457.544 319.79 321.325 324.719 321.325 254.592C321.325 184.465 483.813 127.616 684.252 127.616C884.691 127.616 1037.23 145.548 1047.18 254.592Z" fill="#EEEEEE"/>
<path d="M1047.18 254.592C1039.19 443 858.423 319.79 657.984 319.79C457.544 319.79 321.325 324.719 321.325 254.592C321.325 184.465 483.813 127.616 684.252 127.616C884.691 127.616 1037.23 145.548 1047.18 254.592Z" fill="url(#paint20_linear)"/>
<path d="M1047.18 254.592C1039.19 443 858.423 319.79 657.984 319.79C457.544 319.79 321.325 324.719 321.325 254.592C321.325 184.465 483.813 127.616 684.252 127.616C884.691 127.616 1037.23 145.548 1047.18 254.592Z" fill="url(#paint21_linear)"/>
<path d="M1047.18 254.592C1039.19 443 858.423 319.79 657.984 319.79C457.544 319.79 321.325 324.719 321.325 254.592C321.325 184.465 483.813 127.616 684.252 127.616C884.691 127.616 1037.23 145.548 1047.18 254.592Z" fill="url(#paint22_linear)"/>
<path d="M1047.18 254.592C1039.19 443 858.423 319.79 657.984 319.79C457.544 319.79 321.325 324.719 321.325 254.592C321.325 184.465 483.813 127.616 684.252 127.616C884.691 127.616 1037.23 145.548 1047.18 254.592Z" fill="url(#paint23_linear)"/>
<defs>
<linearGradient id="paint0_linear" x1="506.691" y1="86.0593" x2="506.691" y2="400" gradientUnits="userSpaceOnUse">
<stop stop-color="white"/>
<stop offset="1" stop-color="white" stop-opacity="0"/>
</linearGradient>
<linearGradient id="paint1_linear" x1="506.691" y1="86.0593" x2="506.691" y2="400" gradientUnits="userSpaceOnUse">
<stop stop-color="white"/>
<stop offset="1" stop-color="white" stop-opacity="0"/>
</linearGradient>
<linearGradient id="paint2_linear" x1="506.691" y1="86.0593" x2="506.691" y2="400" gradientUnits="userSpaceOnUse">
<stop stop-color="white"/>
<stop offset="1" stop-color="white" stop-opacity="0"/>
</linearGradient>
<linearGradient id="paint3_linear" x1="506.691" y1="86.0593" x2="506.691" y2="400" gradientUnits="userSpaceOnUse">
<stop stop-color="white"/>
<stop offset="1" stop-color="white" stop-opacity="0"/>
</linearGradient>
<linearGradient id="paint4_linear" x1="506.691" y1="86.0593" x2="506.691" y2="400" gradientUnits="userSpaceOnUse">
<stop stop-color="white"/>
<stop offset="1" stop-color="white" stop-opacity="0"/>
</linearGradient>
<linearGradient id="paint5_linear" x1="506.691" y1="86.0593" x2="506.691" y2="400" gradientUnits="userSpaceOnUse">
<stop stop-color="white"/>
<stop offset="1" stop-color="white" stop-opacity="0"/>
</linearGradient>
<linearGradient id="paint6_linear" x1="506.691" y1="86.0593" x2="506.691" y2="400" gradientUnits="userSpaceOnUse">
<stop stop-color="white"/>
<stop offset="1" stop-color="white" stop-opacity="0"/>
</linearGradient>
<linearGradient id="paint7_linear" x1="506.691" y1="86.0593" x2="506.691" y2="400" gradientUnits="userSpaceOnUse">
<stop stop-color="white"/>
<stop offset="1" stop-color="white" stop-opacity="0"/>
</linearGradient>
<linearGradient id="paint8_linear" x1="506.691" y1="86.0593" x2="506.691" y2="400" gradientUnits="userSpaceOnUse">
<stop stop-color="white"/>
<stop offset="1" stop-color="white" stop-opacity="0"/>
</linearGradient>
<linearGradient id="paint9_linear" x1="506.691" y1="86.0593" x2="506.691" y2="400" gradientUnits="userSpaceOnUse">
<stop stop-color="white"/>
<stop offset="1" stop-color="white" stop-opacity="0"/>
</linearGradient>
<linearGradient id="paint10_linear" x1="506.691" y1="86.0593" x2="506.691" y2="400" gradientUnits="userSpaceOnUse">
<stop stop-color="white"/>
<stop offset="1" stop-color="white" stop-opacity="0"/>
</linearGradient>
<linearGradient id="paint11_linear" x1="506.691" y1="86.0593" x2="506.691" y2="400" gradientUnits="userSpaceOnUse">
<stop stop-color="white"/>
<stop offset="1" stop-color="white" stop-opacity="0"/>
</linearGradient>
<linearGradient id="paint12_linear" x1="506.691" y1="86.0593" x2="506.691" y2="400" gradientUnits="userSpaceOnUse">
<stop stop-color="white"/>
<stop offset="1" stop-color="white" stop-opacity="0"/>
</linearGradient>
<linearGradient id="paint13_linear" x1="506.691" y1="86.0593" x2="506.691" y2="400" gradientUnits="userSpaceOnUse">
<stop stop-color="white"/>
<stop offset="1" stop-color="white" stop-opacity="0"/>
</linearGradient>
<linearGradient id="paint14_linear" x1="506.691" y1="86.0593" x2="506.691" y2="400" gradientUnits="userSpaceOnUse">
<stop stop-color="white"/>
<stop offset="1" stop-color="white" stop-opacity="0"/>
</linearGradient>
<linearGradient id="paint15_linear" x1="506.691" y1="86.0593" x2="506.691" y2="400" gradientUnits="userSpaceOnUse">
<stop stop-color="white"/>
<stop offset="1" stop-color="white" stop-opacity="0"/>
</linearGradient>
<linearGradient id="paint16_linear" x1="506.691" y1="86.0593" x2="506.691" y2="400" gradientUnits="userSpaceOnUse">
<stop stop-color="white"/>
<stop offset="1" stop-color="white" stop-opacity="0"/>
</linearGradient>
<linearGradient id="paint17_linear" x1="506.691" y1="86.0593" x2="506.691" y2="400" gradientUnits="userSpaceOnUse">
<stop stop-color="white"/>
<stop offset="1" stop-color="white" stop-opacity="0"/>
</linearGradient>
<linearGradient id="paint18_linear" x1="506.691" y1="86.0593" x2="506.691" y2="400" gradientUnits="userSpaceOnUse">
<stop stop-color="white"/>
<stop offset="1" stop-color="white" stop-opacity="0"/>
</linearGradient>
<linearGradient id="paint19_linear" x1="506.691" y1="86.0593" x2="506.691" y2="400" gradientUnits="userSpaceOnUse">
<stop stop-color="white"/>
<stop offset="1" stop-color="white" stop-opacity="0"/>
</linearGradient>
<linearGradient id="paint20_linear" x1="506.691" y1="86.0593" x2="506.691" y2="400" gradientUnits="userSpaceOnUse">
<stop stop-color="white"/>
<stop offset="1" stop-color="white" stop-opacity="0"/>
</linearGradient>
<linearGradient id="paint21_linear" x1="506.691" y1="86.0593" x2="506.691" y2="400" gradientUnits="userSpaceOnUse">
<stop stop-color="white"/>
<stop offset="1" stop-color="white" stop-opacity="0"/>
</linearGradient>
<linearGradient id="paint22_linear" x1="506.691" y1="86.0593" x2="506.691" y2="400" gradientUnits="userSpaceOnUse">
<stop stop-color="white"/>
<stop offset="1" stop-color="white" stop-opacity="0"/>
</linearGradient>
<linearGradient id="paint23_linear" x1="506.691" y1="86.0593" x2="506.691" y2="400" gradientUnits="userSpaceOnUse">
<stop stop-color="white"/>
<stop offset="1" stop-color="white" stop-opacity="0"/>
</linearGradient>
</defs>
</svg>
