<svg width="1048" height="400" viewBox="0 0 1048 400" fill="none" xmlns="http://www.w3.org/2000/svg">
<path d="M55.8898 165.698C55.8898 235.825 33.2705 320.94 233.71 320.94C434.149 320.94 781.744 235.825 781.744 165.698C781.744 95.5715 589.635 0 389.196 0C188.757 0 55.8898 95.5715 55.8898 165.698Z" fill="#EEEEEE"/>
<path d="M55.8898 165.698C55.8898 235.825 33.2705 320.94 233.71 320.94C434.149 320.94 781.744 235.825 781.744 165.698C781.744 95.5715 589.635 0 389.196 0C188.757 0 55.8898 95.5715 55.8898 165.698Z" fill="url(#paint0_linear)"/>
<path d="M55.8898 165.698C55.8898 235.825 33.2705 320.94 233.71 320.94C434.149 320.94 781.744 235.825 781.744 165.698C781.744 95.5715 589.635 0 389.196 0C188.757 0 55.8898 95.5715 55.8898 165.698Z" fill="url(#paint1_linear)"/>
<path d="M55.8898 165.698C55.8898 235.825 33.2705 320.94 233.71 320.94C434.149 320.94 781.744 235.825 781.744 165.698C781.744 95.5715 589.635 0 389.196 0C188.757 0 55.8898 95.5715 55.8898 165.698Z" fill="url(#paint2_linear)"/>
<path d="M55.8898 165.698C55.8898 235.825 33.2705 320.94 233.71 320.94C434.149 320.94 781.744 235.825 781.744 165.698C781.744 95.5715 589.635 0 389.196 0C188.757 0 55.8898 95.5715 55.8898 165.698Z" fill="url(#paint3_linear)"/>
<path d="M42.7393 333.364C42.7393 366.853 209.558 394.001 415.34 394.001C621.121 394.001 786.084 323.51 786.084 290.021C786.084 256.532 621.121 246.029 415.34 246.029C209.558 246.029 42.7393 299.875 42.7393 333.364Z" fill="#EEEEEE"/>
<path d="M42.7393 333.364C42.7393 366.853 209.558 394.001 415.34 394.001C621.121 394.001 786.084 323.51 786.084 290.021C786.084 256.532 621.121 246.029 415.34 246.029C209.558 246.029 42.7393 299.875 42.7393 333.364Z" fill="url(#paint4_linear)"/>
<path d="M42.7393 333.364C42.7393 366.853 209.558 394.001 415.34 394.001C621.121 394.001 786.084 323.51 786.084 290.021C786.084 256.532 621.121 246.029 415.34 246.029C209.558 246.029 42.7393 299.875 42.7393 333.364Z" fill="url(#paint5_linear)"/>
<path d="M42.7393 333.364C42.7393 366.853 209.558 394.001 415.34 394.001C621.121 394.001 786.084 323.51 786.084 290.021C786.084 256.532 621.121 246.029 415.34 246.029C209.558 246.029 42.7393 299.875 42.7393 333.364Z" fill="url(#paint6_linear)"/>
<path d="M42.7393 333.364C42.7393 366.853 209.558 394.001 415.34 394.001C621.121 394.001 786.084 323.51 786.084 290.021C786.084 256.532 621.121 246.029 415.34 246.029C209.558 246.029 42.7393 299.875 42.7393 333.364Z" fill="url(#paint7_linear)"/>
<path d="M650 310.897C650 353.415 745.927 387.882 864.258 387.882C982.59 387.882 1047.18 321.218 1047.18 278.7C1047.18 215.807 982.59 201.214 864.258 201.214C745.927 201.214 650 268.379 650 310.897Z" fill="#EEEEEE"/>
<path d="M650 310.897C650 353.415 745.927 387.882 864.258 387.882C982.59 387.882 1047.18 321.218 1047.18 278.7C1047.18 215.807 982.59 201.214 864.258 201.214C745.927 201.214 650 268.379 650 310.897Z" fill="url(#paint8_linear)"/>
<path d="M650 310.897C650 353.415 745.927 387.882 864.258 387.882C982.59 387.882 1047.18 321.218 1047.18 278.7C1047.18 215.807 982.59 201.214 864.258 201.214C745.927 201.214 650 268.379 650 310.897Z" fill="url(#paint9_linear)"/>
<path d="M650 310.897C650 353.415 745.927 387.882 864.258 387.882C982.59 387.882 1047.18 321.218 1047.18 278.7C1047.18 215.807 982.59 201.214 864.258 201.214C745.927 201.214 650 268.379 650 310.897Z" fill="url(#paint10_linear)"/>
<path d="M650 310.897C650 353.415 745.927 387.882 864.258 387.882C982.59 387.882 1047.18 321.218 1047.18 278.7C1047.18 215.807 982.59 201.214 864.258 201.214C745.927 201.214 650 268.379 650 310.897Z" fill="url(#paint11_linear)"/>
<path d="M571.097 213.035C571.097 255.553 667.35 290.021 786.084 290.021C904.818 290.021 1001.07 255.553 1001.07 213.035C1001.07 170.517 921.58 120.553 802.846 120.553C684.112 120.553 571.097 170.517 571.097 213.035Z" fill="#EEEEEE"/>
<path d="M571.097 213.035C571.097 255.553 667.35 290.021 786.084 290.021C904.818 290.021 1001.07 255.553 1001.07 213.035C1001.07 170.517 921.58 120.553 802.846 120.553C684.112 120.553 571.097 170.517 571.097 213.035Z" fill="url(#paint12_linear)"/>
<path d="M571.097 213.035C571.097 255.553 667.35 290.021 786.084 290.021C904.818 290.021 1001.07 255.553 1001.07 213.035C1001.07 170.517 921.58 120.553 802.846 120.553C684.112 120.553 571.097 170.517 571.097 213.035Z" fill="url(#paint13_linear)"/>
<path d="M571.097 213.035C571.097 255.553 667.35 290.021 786.084 290.021C904.818 290.021 1001.07 255.553 1001.07 213.035C1001.07 170.517 921.58 120.553 802.846 120.553C684.112 120.553 571.097 170.517 571.097 213.035Z" fill="url(#paint14_linear)"/>
<path d="M571.097 213.035C571.097 255.553 667.35 290.021 786.084 290.021C904.818 290.021 1001.07 255.553 1001.07 213.035C1001.07 170.517 921.58 120.553 802.846 120.553C684.112 120.553 571.097 170.517 571.097 213.035Z" fill="url(#paint15_linear)"/>
<path d="M1001.07 278.7C1001.07 219.82 979.208 278.7 1001.07 303.018L68.2462 193.539C29.2048 193.539 7.99023 276.237 7.99023 303.018C7.99023 314.04 15.7271 331.399 25.8487 348.432C48.548 386.629 91.1093 399.992 135.543 399.975L864.258 387.882L979.208 359.508C1004.71 353.509 1001.07 307.719 1001.07 278.7Z" fill="#EEEEEE"/>
<path d="M1001.07 278.7C1001.07 219.82 979.208 278.7 1001.07 303.018L68.2462 193.539C29.2048 193.539 7.99023 276.237 7.99023 303.018C7.99023 314.04 15.7271 331.399 25.8487 348.432C48.548 386.629 91.1093 399.992 135.543 399.975L864.258 387.882L979.208 359.508C1004.71 353.509 1001.07 307.719 1001.07 278.7Z" fill="url(#paint16_linear)"/>
<path d="M1001.07 278.7C1001.07 219.82 979.208 278.7 1001.07 303.018L68.2462 193.539C29.2048 193.539 7.99023 276.237 7.99023 303.018C7.99023 314.04 15.7271 331.399 25.8487 348.432C48.548 386.629 91.1093 399.992 135.543 399.975L864.258 387.882L979.208 359.508C1004.71 353.509 1001.07 307.719 1001.07 278.7Z" fill="url(#paint17_linear)"/>
<path d="M1001.07 278.7C1001.07 219.82 979.208 278.7 1001.07 303.018L68.2462 193.539C29.2048 193.539 7.99023 276.237 7.99023 303.018C7.99023 314.04 15.7271 331.399 25.8487 348.432C48.548 386.629 91.1093 399.992 135.543 399.975L864.258 387.882L979.208 359.508C1004.71 353.509 1001.07 307.719 1001.07 278.7Z" fill="url(#paint18_linear)"/>
<path d="M1001.07 278.7C1001.07 219.82 979.208 278.7 1001.07 303.018L68.2462 193.539C29.2048 193.539 7.99023 276.237 7.99023 303.018C7.99023 314.04 15.7271 331.399 25.8487 348.432C48.548 386.629 91.1093 399.992 135.543 399.975L864.258 387.882L979.208 359.508C1004.71 353.509 1001.07 307.719 1001.07 278.7Z" fill="url(#paint19_linear)"/>
<path d="M0 254.592C7.99023 443 188.757 319.79 389.196 319.79C589.635 319.79 725.855 324.719 725.855 254.592C725.855 184.465 563.367 127.616 362.927 127.616C162.488 127.616 9.94461 145.548 0 254.592Z" fill="#EEEEEE"/>
<path d="M0 254.592C7.99023 443 188.757 319.79 389.196 319.79C589.635 319.79 725.855 324.719 725.855 254.592C725.855 184.465 563.367 127.616 362.927 127.616C162.488 127.616 9.94461 145.548 0 254.592Z" fill="url(#paint20_linear)"/>
<path d="M0 254.592C7.99023 443 188.757 319.79 389.196 319.79C589.635 319.79 725.855 324.719 725.855 254.592C725.855 184.465 563.367 127.616 362.927 127.616C162.488 127.616 9.94461 145.548 0 254.592Z" fill="url(#paint21_linear)"/>
<path d="M0 254.592C7.99023 443 188.757 319.79 389.196 319.79C589.635 319.79 725.855 324.719 725.855 254.592C725.855 184.465 563.367 127.616 362.927 127.616C162.488 127.616 9.94461 145.548 0 254.592Z" fill="url(#paint22_linear)"/>
<path d="M0 254.592C7.99023 443 188.757 319.79 389.196 319.79C589.635 319.79 725.855 324.719 725.855 254.592C725.855 184.465 563.367 127.616 362.927 127.616C162.488 127.616 9.94461 145.548 0 254.592Z" fill="url(#paint23_linear)"/>
<defs>
<linearGradient id="paint0_linear" x1="540.489" y1="86.0593" x2="540.489" y2="400" gradientUnits="userSpaceOnUse">
<stop stop-color="white"/>
<stop offset="1" stop-color="white" stop-opacity="0"/>
</linearGradient>
<linearGradient id="paint1_linear" x1="540.489" y1="86.0593" x2="540.489" y2="400" gradientUnits="userSpaceOnUse">
<stop stop-color="white"/>
<stop offset="1" stop-color="white" stop-opacity="0"/>
</linearGradient>
<linearGradient id="paint2_linear" x1="540.489" y1="86.0593" x2="540.489" y2="400" gradientUnits="userSpaceOnUse">
<stop stop-color="white"/>
<stop offset="1" stop-color="white" stop-opacity="0"/>
</linearGradient>
<linearGradient id="paint3_linear" x1="540.489" y1="86.0593" x2="540.489" y2="400" gradientUnits="userSpaceOnUse">
<stop stop-color="white"/>
<stop offset="1" stop-color="white" stop-opacity="0"/>
</linearGradient>
<linearGradient id="paint4_linear" x1="540.489" y1="86.0593" x2="540.489" y2="400" gradientUnits="userSpaceOnUse">
<stop stop-color="white"/>
<stop offset="1" stop-color="white" stop-opacity="0"/>
</linearGradient>
<linearGradient id="paint5_linear" x1="540.489" y1="86.0593" x2="540.489" y2="400" gradientUnits="userSpaceOnUse">
<stop stop-color="white"/>
<stop offset="1" stop-color="white" stop-opacity="0"/>
</linearGradient>
<linearGradient id="paint6_linear" x1="540.489" y1="86.0593" x2="540.489" y2="400" gradientUnits="userSpaceOnUse">
<stop stop-color="white"/>
<stop offset="1" stop-color="white" stop-opacity="0"/>
</linearGradient>
<linearGradient id="paint7_linear" x1="540.489" y1="86.0593" x2="540.489" y2="400" gradientUnits="userSpaceOnUse">
<stop stop-color="white"/>
<stop offset="1" stop-color="white" stop-opacity="0"/>
</linearGradient>
<linearGradient id="paint8_linear" x1="540.489" y1="86.0593" x2="540.489" y2="400" gradientUnits="userSpaceOnUse">
<stop stop-color="white"/>
<stop offset="1" stop-color="white" stop-opacity="0"/>
</linearGradient>
<linearGradient id="paint9_linear" x1="540.489" y1="86.0593" x2="540.489" y2="400" gradientUnits="userSpaceOnUse">
<stop stop-color="white"/>
<stop offset="1" stop-color="white" stop-opacity="0"/>
</linearGradient>
<linearGradient id="paint10_linear" x1="540.489" y1="86.0593" x2="540.489" y2="400" gradientUnits="userSpaceOnUse">
<stop stop-color="white"/>
<stop offset="1" stop-color="white" stop-opacity="0"/>
</linearGradient>
<linearGradient id="paint11_linear" x1="540.489" y1="86.0593" x2="540.489" y2="400" gradientUnits="userSpaceOnUse">
<stop stop-color="white"/>
<stop offset="1" stop-color="white" stop-opacity="0"/>
</linearGradient>
<linearGradient id="paint12_linear" x1="540.489" y1="86.0593" x2="540.489" y2="400" gradientUnits="userSpaceOnUse">
<stop stop-color="white"/>
<stop offset="1" stop-color="white" stop-opacity="0"/>
</linearGradient>
<linearGradient id="paint13_linear" x1="540.489" y1="86.0593" x2="540.489" y2="400" gradientUnits="userSpaceOnUse">
<stop stop-color="white"/>
<stop offset="1" stop-color="white" stop-opacity="0"/>
</linearGradient>
<linearGradient id="paint14_linear" x1="540.489" y1="86.0593" x2="540.489" y2="400" gradientUnits="userSpaceOnUse">
<stop stop-color="white"/>
<stop offset="1" stop-color="white" stop-opacity="0"/>
</linearGradient>
<linearGradient id="paint15_linear" x1="540.489" y1="86.0593" x2="540.489" y2="400" gradientUnits="userSpaceOnUse">
<stop stop-color="white"/>
<stop offset="1" stop-color="white" stop-opacity="0"/>
</linearGradient>
<linearGradient id="paint16_linear" x1="540.489" y1="86.0593" x2="540.489" y2="400" gradientUnits="userSpaceOnUse">
<stop stop-color="white"/>
<stop offset="1" stop-color="white" stop-opacity="0"/>
</linearGradient>
<linearGradient id="paint17_linear" x1="540.489" y1="86.0593" x2="540.489" y2="400" gradientUnits="userSpaceOnUse">
<stop stop-color="white"/>
<stop offset="1" stop-color="white" stop-opacity="0"/>
</linearGradient>
<linearGradient id="paint18_linear" x1="540.489" y1="86.0593" x2="540.489" y2="400" gradientUnits="userSpaceOnUse">
<stop stop-color="white"/>
<stop offset="1" stop-color="white" stop-opacity="0"/>
</linearGradient>
<linearGradient id="paint19_linear" x1="540.489" y1="86.0593" x2="540.489" y2="400" gradientUnits="userSpaceOnUse">
<stop stop-color="white"/>
<stop offset="1" stop-color="white" stop-opacity="0"/>
</linearGradient>
<linearGradient id="paint20_linear" x1="540.489" y1="86.0593" x2="540.489" y2="400" gradientUnits="userSpaceOnUse">
<stop stop-color="white"/>
<stop offset="1" stop-color="white" stop-opacity="0"/>
</linearGradient>
<linearGradient id="paint21_linear" x1="540.489" y1="86.0593" x2="540.489" y2="400" gradientUnits="userSpaceOnUse">
<stop stop-color="white"/>
<stop offset="1" stop-color="white" stop-opacity="0"/>
</linearGradient>
<linearGradient id="paint22_linear" x1="540.489" y1="86.0593" x2="540.489" y2="400" gradientUnits="userSpaceOnUse">
<stop stop-color="white"/>
<stop offset="1" stop-color="white" stop-opacity="0"/>
</linearGradient>
<linearGradient id="paint23_linear" x1="540.489" y1="86.0593" x2="540.489" y2="400" gradientUnits="userSpaceOnUse">
<stop stop-color="white"/>
<stop offset="1" stop-color="white" stop-opacity="0"/>
</linearGradient>
</defs>
</svg>
