<?xml version="1.0" encoding="UTF-8" standalone="no"?>
<!DOCTYPE svg PUBLIC "-//W3C//DTD SVG 20010904//EN"
              "http://www.w3.org/TR/2001/REC-SVG-20010904/DTD/svg10.dtd">

<svg xmlns="http://www.w3.org/2000/svg"
     width="4.61111in" height="2.77778in"
     viewBox="0 0 415 250">
  <path id="Selection #1"
        fill="deepskyblue" stroke="white" stroke-width="5"
        d="M 302.96,27.17
           C 275.36,1.19 230.66,-3.98 198.00,15.45
             181.02,25.56 169.73,40.05 162.00,58.00
             149.85,49.31 138.43,47.83 124.00,48.00
             88.34,48.42 60.85,84.67 67.00,119.00
             19.87,119.14 -7.65,170.81 15.04,211.00
             27.01,232.19 48.37,241.96 72.00,242.00
             72.00,242.00 318.00,242.00 318.00,242.00
             349.12,241.96 375.65,233.33 392.55,205.00
             421.89,155.81 387.64,89.18 329.00,89.00
             328.93,66.45 319.49,42.72 302.96,27.17 Z" />
</svg>
