<?xml version="1.0" encoding="UTF-8" standalone="no"?>
<!DOCTYPE svg PUBLIC "-//W3C//DTD SVG 20010904//EN"
              "http://www.w3.org/TR/2001/REC-SVG-20010904/DTD/svg10.dtd">

<svg xmlns="http://www.w3.org/2000/svg"
     width="4.61111in" height="2.77778in"
     viewBox="0 0 415 250">
  <path id="Selection"
        fill="none" stroke="black" stroke-width="1"
        d="M 172.81,33.00
           C 188.52,13.39 213.82,1.12 239.00,1.00
             288.14,0.77 327.96,37.06 328.00,87.00
             328.00,87.00 278.00,78.42 278.00,78.42
             278.00,78.42 209.00,66.59 209.00,66.59
             209.00,66.59 175.00,60.75 175.00,60.75
             175.00,60.75 159.00,58.50 159.00,58.50
             159.00,58.50 149.00,63.81 149.00,63.81
             149.00,63.81 130.00,75.68 130.00,75.68
             130.00,75.68 63.00,117.00 63.00,117.00
             61.68,112.35 61.98,109.74 62.00,105.00
             62.16,70.54 91.56,45.62 125.00,46.00
             139.14,46.16 147.90,50.61 160.00,57.00
             161.52,48.88 167.68,39.40 172.81,33.00 Z
           M 359.00,94.78
           C 371.07,100.44 378.25,105.71 386.86,116.00
             391.87,121.99 396.63,130.65 399.31,138.00
             417.58,188.19 380.16,239.96 327.00,240.00
             327.00,240.00 327.00,88.00 327.00,88.00
             337.86,88.01 349.12,90.15 359.00,94.78 Z
           M 37.00,234.57
           C 29.60,231.38 24.68,227.67 19.00,222.00
             13.12,216.11 9.16,210.67 5.87,203.00
             -11.72,162.01 18.89,118.13 63.00,118.00
             63.00,118.00 63.00,240.00 63.00,240.00
             53.37,239.97 45.85,238.39 37.00,234.57 Z" />
</svg>
