<svg width="402" height="335" viewBox="0 0 402 335" fill="none" xmlns="http://www.w3.org/2000/svg">
<path d="M228.26 42.3258C206.109 16.3547 176.627 0.5 144.217 0.5C75.2397 0.5 19.521 72.315 19.521 160.626C19.521 164.599 19.6337 168.538 19.8554 172.439C7.85315 189.656 0.5 212.93 0.5 238.53C0.5 264.988 8.3547 288.962 21.0787 306.333C33.8024 323.704 51.4216 334.5 70.9301 334.5H331.07C350.578 334.5 368.198 323.704 380.921 306.333C393.645 288.962 401.5 264.988 401.5 238.53C401.5 212.071 393.645 188.098 380.921 170.727C379.599 168.921 378.223 167.186 376.798 165.527C376.855 163.901 376.885 162.267 376.885 160.626C376.885 92.0586 325.981 36.3968 263.098 36.3968C250.944 36.3968 239.238 38.476 228.26 42.3258Z" fill="#C4C4C4"/>
<path d="M228.26 42.3258C206.109 16.3547 176.627 0.5 144.217 0.5C75.2397 0.5 19.521 72.315 19.521 160.626C19.521 164.599 19.6337 168.538 19.8554 172.439C7.85315 189.656 0.5 212.93 0.5 238.53C0.5 264.988 8.3547 288.962 21.0787 306.333C33.8024 323.704 51.4216 334.5 70.9301 334.5H331.07C350.578 334.5 368.198 323.704 380.921 306.333C393.645 288.962 401.5 264.988 401.5 238.53C401.5 212.071 393.645 188.098 380.921 170.727C379.599 168.921 378.223 167.186 376.798 165.527C376.855 163.901 376.885 162.267 376.885 160.626C376.885 92.0586 325.981 36.3968 263.098 36.3968C250.944 36.3968 239.238 38.476 228.26 42.3258Z" fill="url(#paint0_linear)"/>
<path d="M228.26 42.3258C206.109 16.3547 176.627 0.5 144.217 0.5C75.2397 0.5 19.521 72.315 19.521 160.626C19.521 164.599 19.6337 168.538 19.8554 172.439C7.85315 189.656 0.5 212.93 0.5 238.53C0.5 264.988 8.3547 288.962 21.0787 306.333C33.8024 323.704 51.4216 334.5 70.9301 334.5H331.07C350.578 334.5 368.198 323.704 380.921 306.333C393.645 288.962 401.5 264.988 401.5 238.53C401.5 212.071 393.645 188.098 380.921 170.727C379.599 168.921 378.223 167.186 376.798 165.527C376.855 163.901 376.885 162.267 376.885 160.626C376.885 92.0586 325.981 36.3968 263.098 36.3968C250.944 36.3968 239.238 38.476 228.26 42.3258Z" fill="url(#paint1_linear)"/>
<path d="M228.26 42.3258C206.109 16.3547 176.627 0.5 144.217 0.5C75.2397 0.5 19.521 72.315 19.521 160.626C19.521 164.599 19.6337 168.538 19.8554 172.439C7.85315 189.656 0.5 212.93 0.5 238.53C0.5 264.988 8.3547 288.962 21.0787 306.333C33.8024 323.704 51.4216 334.5 70.9301 334.5H331.07C350.578 334.5 368.198 323.704 380.921 306.333C393.645 288.962 401.5 264.988 401.5 238.53C401.5 212.071 393.645 188.098 380.921 170.727C379.599 168.921 378.223 167.186 376.798 165.527C376.855 163.901 376.885 162.267 376.885 160.626C376.885 92.0586 325.981 36.3968 263.098 36.3968C250.944 36.3968 239.238 38.476 228.26 42.3258Z" fill="url(#paint2_linear)"/>
<path d="M228.26 42.3258C206.109 16.3547 176.627 0.5 144.217 0.5C75.2397 0.5 19.521 72.315 19.521 160.626C19.521 164.599 19.6337 168.538 19.8554 172.439C7.85315 189.656 0.5 212.93 0.5 238.53C0.5 264.988 8.3547 288.962 21.0787 306.333C33.8024 323.704 51.4216 334.5 70.9301 334.5H331.07C350.578 334.5 368.198 323.704 380.921 306.333C393.645 288.962 401.5 264.988 401.5 238.53C401.5 212.071 393.645 188.098 380.921 170.727C379.599 168.921 378.223 167.186 376.798 165.527C376.855 163.901 376.885 162.267 376.885 160.626C376.885 92.0586 325.981 36.3968 263.098 36.3968C250.944 36.3968 239.238 38.476 228.26 42.3258Z" fill="url(#paint3_linear)"/>
<path d="M228.26 42.3258C206.109 16.3547 176.627 0.5 144.217 0.5C75.2397 0.5 19.521 72.315 19.521 160.626C19.521 164.599 19.6337 168.538 19.8554 172.439C7.85315 189.656 0.5 212.93 0.5 238.53C0.5 264.988 8.3547 288.962 21.0787 306.333C33.8024 323.704 51.4216 334.5 70.9301 334.5H331.07C350.578 334.5 368.198 323.704 380.921 306.333C393.645 288.962 401.5 264.988 401.5 238.53C401.5 212.071 393.645 188.098 380.921 170.727C379.599 168.921 378.223 167.186 376.798 165.527C376.855 163.901 376.885 162.267 376.885 160.626C376.885 92.0586 325.981 36.3968 263.098 36.3968C250.944 36.3968 239.238 38.476 228.26 42.3258Z" fill="url(#paint4_linear)"/>
<path d="M228.26 42.3258C206.109 16.3547 176.627 0.5 144.217 0.5C75.2397 0.5 19.521 72.315 19.521 160.626C19.521 164.599 19.6337 168.538 19.8554 172.439C7.85315 189.656 0.5 212.93 0.5 238.53C0.5 264.988 8.3547 288.962 21.0787 306.333C33.8024 323.704 51.4216 334.5 70.9301 334.5H331.07C350.578 334.5 368.198 323.704 380.921 306.333C393.645 288.962 401.5 264.988 401.5 238.53C401.5 212.071 393.645 188.098 380.921 170.727C379.599 168.921 378.223 167.186 376.798 165.527C376.855 163.901 376.885 162.267 376.885 160.626C376.885 92.0586 325.981 36.3968 263.098 36.3968C250.944 36.3968 239.238 38.476 228.26 42.3258Z" stroke="#C4C4C4"/>
<defs>
<linearGradient id="paint0_linear" x1="201" y1="1" x2="201" y2="334" gradientUnits="userSpaceOnUse">
<stop stop-color="#EEEEEE"/>
<stop offset="1" stop-color="white" stop-opacity="0"/>
</linearGradient>
<linearGradient id="paint1_linear" x1="201" y1="1" x2="201" y2="334" gradientUnits="userSpaceOnUse">
<stop stop-color="white"/>
<stop offset="1" stop-color="white" stop-opacity="0"/>
</linearGradient>
<linearGradient id="paint2_linear" x1="201" y1="1" x2="201" y2="334" gradientUnits="userSpaceOnUse">
<stop stop-color="white"/>
<stop offset="1" stop-color="white" stop-opacity="0"/>
</linearGradient>
<linearGradient id="paint3_linear" x1="201" y1="1" x2="201" y2="334" gradientUnits="userSpaceOnUse">
<stop stop-color="white"/>
<stop offset="1" stop-color="white" stop-opacity="0"/>
</linearGradient>
<linearGradient id="paint4_linear" x1="201" y1="1" x2="201" y2="334" gradientUnits="userSpaceOnUse">
<stop stop-color="white"/>
<stop offset="1" stop-color="white" stop-opacity="0"/>
</linearGradient>
</defs>
</svg>
