<svg width="746" height="400" viewBox="0 0 746 400" fill="none" xmlns="http://www.w3.org/2000/svg">
<path d="M39.8154 165.709C39.8154 235.84 23.7016 320.96 166.492 320.96C309.283 320.96 556.907 235.84 556.907 165.709C556.907 95.5774 420.05 0 277.259 0C134.468 0 39.8154 95.5774 39.8154 165.709Z" fill="#EEEEEE"/>
<path d="M39.8154 165.709C39.8154 235.84 23.7016 320.96 166.492 320.96C309.283 320.96 556.907 235.84 556.907 165.709C556.907 95.5774 420.05 0 277.259 0C134.468 0 39.8154 95.5774 39.8154 165.709Z" fill="url(#paint0_linear)"/>
<path d="M39.8154 165.709C39.8154 235.84 23.7016 320.96 166.492 320.96C309.283 320.96 556.907 235.84 556.907 165.709C556.907 95.5774 420.05 0 277.259 0C134.468 0 39.8154 95.5774 39.8154 165.709Z" fill="url(#paint1_linear)"/>
<path d="M39.8154 165.709C39.8154 235.84 23.7016 320.96 166.492 320.96C309.283 320.96 556.907 235.84 556.907 165.709C556.907 95.5774 420.05 0 277.259 0C134.468 0 39.8154 95.5774 39.8154 165.709Z" fill="url(#paint2_linear)"/>
<path d="M39.8154 165.709C39.8154 235.84 23.7016 320.96 166.492 320.96C309.283 320.96 556.907 235.84 556.907 165.709C556.907 95.5774 420.05 0 277.259 0C134.468 0 39.8154 95.5774 39.8154 165.709Z" fill="url(#paint3_linear)"/>
<path d="M30.447 333.385C30.447 366.876 149.287 394.026 295.884 394.026C442.481 394.026 559.999 323.53 559.999 290.039C559.999 256.548 442.481 246.044 295.884 246.044C149.287 246.044 30.447 299.894 30.447 333.385Z" fill="#EEEEEE"/>
<path d="M30.447 333.385C30.447 366.876 149.287 394.026 295.884 394.026C442.481 394.026 559.999 323.53 559.999 290.039C559.999 256.548 442.481 246.044 295.884 246.044C149.287 246.044 30.447 299.894 30.447 333.385Z" fill="url(#paint4_linear)"/>
<path d="M30.447 333.385C30.447 366.876 149.287 394.026 295.884 394.026C442.481 394.026 559.999 323.53 559.999 290.039C559.999 256.548 442.481 246.044 295.884 246.044C149.287 246.044 30.447 299.894 30.447 333.385Z" fill="url(#paint5_linear)"/>
<path d="M30.447 333.385C30.447 366.876 149.287 394.026 295.884 394.026C442.481 394.026 559.999 323.53 559.999 290.039C559.999 256.548 442.481 246.044 295.884 246.044C149.287 246.044 30.447 299.894 30.447 333.385Z" fill="url(#paint6_linear)"/>
<path d="M30.447 333.385C30.447 366.876 149.287 394.026 295.884 394.026C442.481 394.026 559.999 323.53 559.999 290.039C559.999 256.548 442.481 246.044 295.884 246.044C149.287 246.044 30.447 299.894 30.447 333.385Z" fill="url(#paint7_linear)"/>
<path d="M463.054 310.916C463.054 353.437 531.391 387.906 615.689 387.906C699.987 387.906 746 321.238 746 278.717C746 215.821 699.987 201.227 615.689 201.227C531.391 201.227 463.054 268.395 463.054 310.916Z" fill="#EEEEEE"/>
<path d="M463.054 310.916C463.054 353.437 531.391 387.906 615.689 387.906C699.987 387.906 746 321.238 746 278.717C746 215.821 699.987 201.227 615.689 201.227C531.391 201.227 463.054 268.395 463.054 310.916Z" fill="url(#paint8_linear)"/>
<path d="M463.054 310.916C463.054 353.437 531.391 387.906 615.689 387.906C699.987 387.906 746 321.238 746 278.717C746 215.821 699.987 201.227 615.689 201.227C531.391 201.227 463.054 268.395 463.054 310.916Z" fill="url(#paint9_linear)"/>
<path d="M463.054 310.916C463.054 353.437 531.391 387.906 615.689 387.906C699.987 387.906 746 321.238 746 278.717C746 215.821 699.987 201.227 615.689 201.227C531.391 201.227 463.054 268.395 463.054 310.916Z" fill="url(#paint10_linear)"/>
<path d="M463.054 310.916C463.054 353.437 531.391 387.906 615.689 387.906C699.987 387.906 746 321.238 746 278.717C746 215.821 699.987 201.227 615.689 201.227C531.391 201.227 463.054 268.395 463.054 310.916Z" fill="url(#paint11_linear)"/>
<path d="M406.844 213.048C406.844 255.569 475.414 290.039 559.999 290.039C644.583 290.039 713.153 255.569 713.153 213.048C713.153 170.528 656.524 120.56 571.939 120.56C487.354 120.56 406.844 170.528 406.844 213.048Z" fill="#EEEEEE"/>
<path d="M406.844 213.048C406.844 255.569 475.414 290.039 559.999 290.039C644.583 290.039 713.153 255.569 713.153 213.048C713.153 170.528 656.524 120.56 571.939 120.56C487.354 120.56 406.844 170.528 406.844 213.048Z" fill="url(#paint12_linear)"/>
<path d="M406.844 213.048C406.844 255.569 475.414 290.039 559.999 290.039C644.583 290.039 713.153 255.569 713.153 213.048C713.153 170.528 656.524 120.56 571.939 120.56C487.354 120.56 406.844 170.528 406.844 213.048Z" fill="url(#paint13_linear)"/>
<path d="M406.844 213.048C406.844 255.569 475.414 290.039 559.999 290.039C644.583 290.039 713.153 255.569 713.153 213.048C713.153 170.528 656.524 120.56 571.939 120.56C487.354 120.56 406.844 170.528 406.844 213.048Z" fill="url(#paint14_linear)"/>
<path d="M406.844 213.048C406.844 255.569 475.414 290.039 559.999 290.039C644.583 290.039 713.153 255.569 713.153 213.048C713.153 170.528 656.524 120.56 571.939 120.56C487.354 120.56 406.844 170.528 406.844 213.048Z" fill="url(#paint15_linear)"/>
<path d="M713.153 278.717C713.153 219.833 697.578 278.717 713.153 303.037L48.6179 193.551C20.8052 193.551 5.69216 276.255 5.69216 303.037C5.69216 314.059 11.2039 331.42 18.4143 348.453C34.5851 386.653 64.9053 400.016 96.5592 400L615.689 387.906L697.578 359.53C715.749 353.531 713.153 307.738 713.153 278.717Z" fill="#EEEEEE"/>
<path d="M713.153 278.717C713.153 219.833 697.578 278.717 713.153 303.037L48.6179 193.551C20.8052 193.551 5.69216 276.255 5.69216 303.037C5.69216 314.059 11.2039 331.42 18.4143 348.453C34.5851 386.653 64.9053 400.016 96.5592 400L615.689 387.906L697.578 359.53C715.749 353.531 713.153 307.738 713.153 278.717Z" fill="url(#paint16_linear)"/>
<path d="M713.153 278.717C713.153 219.833 697.578 278.717 713.153 303.037L48.6179 193.551C20.8052 193.551 5.69216 276.255 5.69216 303.037C5.69216 314.059 11.2039 331.42 18.4143 348.453C34.5851 386.653 64.9053 400.016 96.5592 400L615.689 387.906L697.578 359.53C715.749 353.531 713.153 307.738 713.153 278.717Z" fill="url(#paint17_linear)"/>
<path d="M713.153 278.717C713.153 219.833 697.578 278.717 713.153 303.037L48.6179 193.551C20.8052 193.551 5.69216 276.255 5.69216 303.037C5.69216 314.059 11.2039 331.42 18.4143 348.453C34.5851 386.653 64.9053 400.016 96.5592 400L615.689 387.906L697.578 359.53C715.749 353.531 713.153 307.738 713.153 278.717Z" fill="url(#paint18_linear)"/>
<path d="M713.153 278.717C713.153 219.833 697.578 278.717 713.153 303.037L48.6179 193.551C20.8052 193.551 5.69216 276.255 5.69216 303.037C5.69216 314.059 11.2039 331.42 18.4143 348.453C34.5851 386.653 64.9053 400.016 96.5592 400L615.689 387.906L697.578 359.53C715.749 353.531 713.153 307.738 713.153 278.717Z" fill="url(#paint19_linear)"/>
<path d="M0 254.608C5.69216 443.028 134.468 319.81 277.259 319.81C420.05 319.81 517.091 324.739 517.091 254.608C517.091 184.476 401.337 127.624 258.546 127.624C115.755 127.624 7.08444 145.557 0 254.608Z" fill="#EEEEEE"/>
<path d="M0 254.608C5.69216 443.028 134.468 319.81 277.259 319.81C420.05 319.81 517.091 324.739 517.091 254.608C517.091 184.476 401.337 127.624 258.546 127.624C115.755 127.624 7.08444 145.557 0 254.608Z" fill="url(#paint20_linear)"/>
<path d="M0 254.608C5.69216 443.028 134.468 319.81 277.259 319.81C420.05 319.81 517.091 324.739 517.091 254.608C517.091 184.476 401.337 127.624 258.546 127.624C115.755 127.624 7.08444 145.557 0 254.608Z" fill="url(#paint21_linear)"/>
<path d="M0 254.608C5.69216 443.028 134.468 319.81 277.259 319.81C420.05 319.81 517.091 324.739 517.091 254.608C517.091 184.476 401.337 127.624 258.546 127.624C115.755 127.624 7.08444 145.557 0 254.608Z" fill="url(#paint22_linear)"/>
<path d="M0 254.608C5.69216 443.028 134.468 319.81 277.259 319.81C420.05 319.81 517.091 324.739 517.091 254.608C517.091 184.476 401.337 127.624 258.546 127.624C115.755 127.624 7.08444 145.557 0 254.608Z" fill="url(#paint23_linear)"/>
<defs>
<linearGradient id="paint0_linear" x1="385.039" y1="86.0646" x2="385.039" y2="400.025" gradientUnits="userSpaceOnUse">
<stop stop-color="white"/>
<stop offset="1" stop-color="white" stop-opacity="0"/>
</linearGradient>
<linearGradient id="paint1_linear" x1="385.039" y1="86.0646" x2="385.039" y2="400.025" gradientUnits="userSpaceOnUse">
<stop stop-color="white"/>
<stop offset="1" stop-color="white" stop-opacity="0"/>
</linearGradient>
<linearGradient id="paint2_linear" x1="385.039" y1="86.0646" x2="385.039" y2="400.025" gradientUnits="userSpaceOnUse">
<stop stop-color="white"/>
<stop offset="1" stop-color="white" stop-opacity="0"/>
</linearGradient>
<linearGradient id="paint3_linear" x1="385.039" y1="86.0646" x2="385.039" y2="400.025" gradientUnits="userSpaceOnUse">
<stop stop-color="white"/>
<stop offset="1" stop-color="white" stop-opacity="0"/>
</linearGradient>
<linearGradient id="paint4_linear" x1="385.039" y1="86.0646" x2="385.039" y2="400.025" gradientUnits="userSpaceOnUse">
<stop stop-color="white"/>
<stop offset="1" stop-color="white" stop-opacity="0"/>
</linearGradient>
<linearGradient id="paint5_linear" x1="385.039" y1="86.0646" x2="385.039" y2="400.025" gradientUnits="userSpaceOnUse">
<stop stop-color="white"/>
<stop offset="1" stop-color="white" stop-opacity="0"/>
</linearGradient>
<linearGradient id="paint6_linear" x1="385.039" y1="86.0646" x2="385.039" y2="400.025" gradientUnits="userSpaceOnUse">
<stop stop-color="white"/>
<stop offset="1" stop-color="white" stop-opacity="0"/>
</linearGradient>
<linearGradient id="paint7_linear" x1="385.039" y1="86.0646" x2="385.039" y2="400.025" gradientUnits="userSpaceOnUse">
<stop stop-color="white"/>
<stop offset="1" stop-color="white" stop-opacity="0"/>
</linearGradient>
<linearGradient id="paint8_linear" x1="385.039" y1="86.0646" x2="385.039" y2="400.025" gradientUnits="userSpaceOnUse">
<stop stop-color="white"/>
<stop offset="1" stop-color="white" stop-opacity="0"/>
</linearGradient>
<linearGradient id="paint9_linear" x1="385.039" y1="86.0646" x2="385.039" y2="400.025" gradientUnits="userSpaceOnUse">
<stop stop-color="white"/>
<stop offset="1" stop-color="white" stop-opacity="0"/>
</linearGradient>
<linearGradient id="paint10_linear" x1="385.039" y1="86.0646" x2="385.039" y2="400.025" gradientUnits="userSpaceOnUse">
<stop stop-color="white"/>
<stop offset="1" stop-color="white" stop-opacity="0"/>
</linearGradient>
<linearGradient id="paint11_linear" x1="385.039" y1="86.0646" x2="385.039" y2="400.025" gradientUnits="userSpaceOnUse">
<stop stop-color="white"/>
<stop offset="1" stop-color="white" stop-opacity="0"/>
</linearGradient>
<linearGradient id="paint12_linear" x1="385.039" y1="86.0646" x2="385.039" y2="400.025" gradientUnits="userSpaceOnUse">
<stop stop-color="white"/>
<stop offset="1" stop-color="white" stop-opacity="0"/>
</linearGradient>
<linearGradient id="paint13_linear" x1="385.039" y1="86.0646" x2="385.039" y2="400.025" gradientUnits="userSpaceOnUse">
<stop stop-color="white"/>
<stop offset="1" stop-color="white" stop-opacity="0"/>
</linearGradient>
<linearGradient id="paint14_linear" x1="385.039" y1="86.0646" x2="385.039" y2="400.025" gradientUnits="userSpaceOnUse">
<stop stop-color="white"/>
<stop offset="1" stop-color="white" stop-opacity="0"/>
</linearGradient>
<linearGradient id="paint15_linear" x1="385.039" y1="86.0646" x2="385.039" y2="400.025" gradientUnits="userSpaceOnUse">
<stop stop-color="white"/>
<stop offset="1" stop-color="white" stop-opacity="0"/>
</linearGradient>
<linearGradient id="paint16_linear" x1="385.039" y1="86.0646" x2="385.039" y2="400.025" gradientUnits="userSpaceOnUse">
<stop stop-color="white"/>
<stop offset="1" stop-color="white" stop-opacity="0"/>
</linearGradient>
<linearGradient id="paint17_linear" x1="385.039" y1="86.0646" x2="385.039" y2="400.025" gradientUnits="userSpaceOnUse">
<stop stop-color="white"/>
<stop offset="1" stop-color="white" stop-opacity="0"/>
</linearGradient>
<linearGradient id="paint18_linear" x1="385.039" y1="86.0646" x2="385.039" y2="400.025" gradientUnits="userSpaceOnUse">
<stop stop-color="white"/>
<stop offset="1" stop-color="white" stop-opacity="0"/>
</linearGradient>
<linearGradient id="paint19_linear" x1="385.039" y1="86.0646" x2="385.039" y2="400.025" gradientUnits="userSpaceOnUse">
<stop stop-color="white"/>
<stop offset="1" stop-color="white" stop-opacity="0"/>
</linearGradient>
<linearGradient id="paint20_linear" x1="385.039" y1="86.0646" x2="385.039" y2="400.025" gradientUnits="userSpaceOnUse">
<stop stop-color="white"/>
<stop offset="1" stop-color="white" stop-opacity="0"/>
</linearGradient>
<linearGradient id="paint21_linear" x1="385.039" y1="86.0646" x2="385.039" y2="400.025" gradientUnits="userSpaceOnUse">
<stop stop-color="white"/>
<stop offset="1" stop-color="white" stop-opacity="0"/>
</linearGradient>
<linearGradient id="paint22_linear" x1="385.039" y1="86.0646" x2="385.039" y2="400.025" gradientUnits="userSpaceOnUse">
<stop stop-color="white"/>
<stop offset="1" stop-color="white" stop-opacity="0"/>
</linearGradient>
<linearGradient id="paint23_linear" x1="385.039" y1="86.0646" x2="385.039" y2="400.025" gradientUnits="userSpaceOnUse">
<stop stop-color="white"/>
<stop offset="1" stop-color="white" stop-opacity="0"/>
</linearGradient>
</defs>
</svg>
