<svg width="746" height="400" viewBox="0 0 746 400" fill="none" xmlns="http://www.w3.org/2000/svg">
<path d="M706.185 165.709C706.185 235.84 722.298 320.96 579.508 320.96C436.717 320.96 189.093 235.84 189.093 165.709C189.093 95.5774 325.95 0 468.741 0C611.532 0 706.185 95.5774 706.185 165.709Z" fill="#EEEEEE"/>
<path d="M706.185 165.709C706.185 235.84 722.298 320.96 579.508 320.96C436.717 320.96 189.093 235.84 189.093 165.709C189.093 95.5774 325.95 0 468.741 0C611.532 0 706.185 95.5774 706.185 165.709Z" fill="url(#paint0_linear)"/>
<path d="M706.185 165.709C706.185 235.84 722.298 320.96 579.508 320.96C436.717 320.96 189.093 235.84 189.093 165.709C189.093 95.5774 325.95 0 468.741 0C611.532 0 706.185 95.5774 706.185 165.709Z" fill="url(#paint1_linear)"/>
<path d="M706.185 165.709C706.185 235.84 722.298 320.96 579.508 320.96C436.717 320.96 189.093 235.84 189.093 165.709C189.093 95.5774 325.95 0 468.741 0C611.532 0 706.185 95.5774 706.185 165.709Z" fill="url(#paint2_linear)"/>
<path d="M706.185 165.709C706.185 235.84 722.298 320.96 579.508 320.96C436.717 320.96 189.093 235.84 189.093 165.709C189.093 95.5774 325.95 0 468.741 0C611.532 0 706.185 95.5774 706.185 165.709Z" fill="url(#paint3_linear)"/>
<path d="M715.553 333.385C715.553 366.876 596.713 394.026 450.116 394.026C303.519 394.026 186.001 323.53 186.001 290.039C186.001 256.548 303.519 246.044 450.116 246.044C596.713 246.044 715.553 299.894 715.553 333.385Z" fill="#EEEEEE"/>
<path d="M715.553 333.385C715.553 366.876 596.713 394.026 450.116 394.026C303.519 394.026 186.001 323.53 186.001 290.039C186.001 256.548 303.519 246.044 450.116 246.044C596.713 246.044 715.553 299.894 715.553 333.385Z" fill="url(#paint4_linear)"/>
<path d="M715.553 333.385C715.553 366.876 596.713 394.026 450.116 394.026C303.519 394.026 186.001 323.53 186.001 290.039C186.001 256.548 303.519 246.044 450.116 246.044C596.713 246.044 715.553 299.894 715.553 333.385Z" fill="url(#paint5_linear)"/>
<path d="M715.553 333.385C715.553 366.876 596.713 394.026 450.116 394.026C303.519 394.026 186.001 323.53 186.001 290.039C186.001 256.548 303.519 246.044 450.116 246.044C596.713 246.044 715.553 299.894 715.553 333.385Z" fill="url(#paint6_linear)"/>
<path d="M715.553 333.385C715.553 366.876 596.713 394.026 450.116 394.026C303.519 394.026 186.001 323.53 186.001 290.039C186.001 256.548 303.519 246.044 450.116 246.044C596.713 246.044 715.553 299.894 715.553 333.385Z" fill="url(#paint7_linear)"/>
<path d="M282.946 310.916C282.946 353.437 214.609 387.906 130.311 387.906C46.013 387.906 -2.01286e-05 321.238 -2.01286e-05 278.717C-2.01286e-05 215.821 46.013 201.227 130.311 201.227C214.609 201.227 282.946 268.395 282.946 310.916Z" fill="#EEEEEE"/>
<path d="M282.946 310.916C282.946 353.437 214.609 387.906 130.311 387.906C46.013 387.906 -2.01286e-05 321.238 -2.01286e-05 278.717C-2.01286e-05 215.821 46.013 201.227 130.311 201.227C214.609 201.227 282.946 268.395 282.946 310.916Z" fill="url(#paint8_linear)"/>
<path d="M282.946 310.916C282.946 353.437 214.609 387.906 130.311 387.906C46.013 387.906 -2.01286e-05 321.238 -2.01286e-05 278.717C-2.01286e-05 215.821 46.013 201.227 130.311 201.227C214.609 201.227 282.946 268.395 282.946 310.916Z" fill="url(#paint9_linear)"/>
<path d="M282.946 310.916C282.946 353.437 214.609 387.906 130.311 387.906C46.013 387.906 -2.01286e-05 321.238 -2.01286e-05 278.717C-2.01286e-05 215.821 46.013 201.227 130.311 201.227C214.609 201.227 282.946 268.395 282.946 310.916Z" fill="url(#paint10_linear)"/>
<path d="M282.946 310.916C282.946 353.437 214.609 387.906 130.311 387.906C46.013 387.906 -2.01286e-05 321.238 -2.01286e-05 278.717C-2.01286e-05 215.821 46.013 201.227 130.311 201.227C214.609 201.227 282.946 268.395 282.946 310.916Z" fill="url(#paint11_linear)"/>
<path d="M339.156 213.048C339.156 255.569 270.586 290.039 186.001 290.039C101.417 290.039 32.8469 255.569 32.8469 213.048C32.8469 170.528 89.4758 120.56 174.061 120.56C258.646 120.56 339.156 170.528 339.156 213.048Z" fill="#EEEEEE"/>
<path d="M339.156 213.048C339.156 255.569 270.586 290.039 186.001 290.039C101.417 290.039 32.8469 255.569 32.8469 213.048C32.8469 170.528 89.4758 120.56 174.061 120.56C258.646 120.56 339.156 170.528 339.156 213.048Z" fill="url(#paint12_linear)"/>
<path d="M339.156 213.048C339.156 255.569 270.586 290.039 186.001 290.039C101.417 290.039 32.8469 255.569 32.8469 213.048C32.8469 170.528 89.4758 120.56 174.061 120.56C258.646 120.56 339.156 170.528 339.156 213.048Z" fill="url(#paint13_linear)"/>
<path d="M339.156 213.048C339.156 255.569 270.586 290.039 186.001 290.039C101.417 290.039 32.8469 255.569 32.8469 213.048C32.8469 170.528 89.4758 120.56 174.061 120.56C258.646 120.56 339.156 170.528 339.156 213.048Z" fill="url(#paint14_linear)"/>
<path d="M339.156 213.048C339.156 255.569 270.586 290.039 186.001 290.039C101.417 290.039 32.8469 255.569 32.8469 213.048C32.8469 170.528 89.4758 120.56 174.061 120.56C258.646 120.56 339.156 170.528 339.156 213.048Z" fill="url(#paint15_linear)"/>
<path d="M32.8469 278.717C32.8469 219.833 48.422 278.717 32.8469 303.037L697.382 193.551C725.195 193.551 740.308 276.255 740.308 303.037C740.308 314.059 734.796 331.42 727.586 348.453C711.415 386.653 681.095 400.016 649.441 400L130.311 387.906L48.4221 359.53C30.2512 353.531 32.8469 307.738 32.8469 278.717Z" fill="#EEEEEE"/>
<path d="M32.8469 278.717C32.8469 219.833 48.422 278.717 32.8469 303.037L697.382 193.551C725.195 193.551 740.308 276.255 740.308 303.037C740.308 314.059 734.796 331.42 727.586 348.453C711.415 386.653 681.095 400.016 649.441 400L130.311 387.906L48.4221 359.53C30.2512 353.531 32.8469 307.738 32.8469 278.717Z" fill="url(#paint16_linear)"/>
<path d="M32.8469 278.717C32.8469 219.833 48.422 278.717 32.8469 303.037L697.382 193.551C725.195 193.551 740.308 276.255 740.308 303.037C740.308 314.059 734.796 331.42 727.586 348.453C711.415 386.653 681.095 400.016 649.441 400L130.311 387.906L48.4221 359.53C30.2512 353.531 32.8469 307.738 32.8469 278.717Z" fill="url(#paint17_linear)"/>
<path d="M32.8469 278.717C32.8469 219.833 48.422 278.717 32.8469 303.037L697.382 193.551C725.195 193.551 740.308 276.255 740.308 303.037C740.308 314.059 734.796 331.42 727.586 348.453C711.415 386.653 681.095 400.016 649.441 400L130.311 387.906L48.4221 359.53C30.2512 353.531 32.8469 307.738 32.8469 278.717Z" fill="url(#paint18_linear)"/>
<path d="M32.8469 278.717C32.8469 219.833 48.422 278.717 32.8469 303.037L697.382 193.551C725.195 193.551 740.308 276.255 740.308 303.037C740.308 314.059 734.796 331.42 727.586 348.453C711.415 386.653 681.095 400.016 649.441 400L130.311 387.906L48.4221 359.53C30.2512 353.531 32.8469 307.738 32.8469 278.717Z" fill="url(#paint19_linear)"/>
<path d="M746 254.608C740.308 443.028 611.532 319.81 468.741 319.81C325.95 319.81 228.909 324.739 228.909 254.608C228.909 184.476 344.663 127.624 487.454 127.624C630.245 127.624 738.916 145.557 746 254.608Z" fill="#EEEEEE"/>
<path d="M746 254.608C740.308 443.028 611.532 319.81 468.741 319.81C325.95 319.81 228.909 324.739 228.909 254.608C228.909 184.476 344.663 127.624 487.454 127.624C630.245 127.624 738.916 145.557 746 254.608Z" fill="url(#paint20_linear)"/>
<path d="M746 254.608C740.308 443.028 611.532 319.81 468.741 319.81C325.95 319.81 228.909 324.739 228.909 254.608C228.909 184.476 344.663 127.624 487.454 127.624C630.245 127.624 738.916 145.557 746 254.608Z" fill="url(#paint21_linear)"/>
<path d="M746 254.608C740.308 443.028 611.532 319.81 468.741 319.81C325.95 319.81 228.909 324.739 228.909 254.608C228.909 184.476 344.663 127.624 487.454 127.624C630.245 127.624 738.916 145.557 746 254.608Z" fill="url(#paint22_linear)"/>
<path d="M746 254.608C740.308 443.028 611.532 319.81 468.741 319.81C325.95 319.81 228.909 324.739 228.909 254.608C228.909 184.476 344.663 127.624 487.454 127.624C630.245 127.624 738.916 145.557 746 254.608Z" fill="url(#paint23_linear)"/>
<defs>
<linearGradient id="paint0_linear" x1="360.961" y1="86.0646" x2="360.961" y2="400.025" gradientUnits="userSpaceOnUse">
<stop stop-color="white"/>
<stop offset="1" stop-color="white" stop-opacity="0"/>
</linearGradient>
<linearGradient id="paint1_linear" x1="360.961" y1="86.0646" x2="360.961" y2="400.025" gradientUnits="userSpaceOnUse">
<stop stop-color="white"/>
<stop offset="1" stop-color="white" stop-opacity="0"/>
</linearGradient>
<linearGradient id="paint2_linear" x1="360.961" y1="86.0646" x2="360.961" y2="400.025" gradientUnits="userSpaceOnUse">
<stop stop-color="white"/>
<stop offset="1" stop-color="white" stop-opacity="0"/>
</linearGradient>
<linearGradient id="paint3_linear" x1="360.961" y1="86.0646" x2="360.961" y2="400.025" gradientUnits="userSpaceOnUse">
<stop stop-color="white"/>
<stop offset="1" stop-color="white" stop-opacity="0"/>
</linearGradient>
<linearGradient id="paint4_linear" x1="360.961" y1="86.0646" x2="360.961" y2="400.025" gradientUnits="userSpaceOnUse">
<stop stop-color="white"/>
<stop offset="1" stop-color="white" stop-opacity="0"/>
</linearGradient>
<linearGradient id="paint5_linear" x1="360.961" y1="86.0646" x2="360.961" y2="400.025" gradientUnits="userSpaceOnUse">
<stop stop-color="white"/>
<stop offset="1" stop-color="white" stop-opacity="0"/>
</linearGradient>
<linearGradient id="paint6_linear" x1="360.961" y1="86.0646" x2="360.961" y2="400.025" gradientUnits="userSpaceOnUse">
<stop stop-color="white"/>
<stop offset="1" stop-color="white" stop-opacity="0"/>
</linearGradient>
<linearGradient id="paint7_linear" x1="360.961" y1="86.0646" x2="360.961" y2="400.025" gradientUnits="userSpaceOnUse">
<stop stop-color="white"/>
<stop offset="1" stop-color="white" stop-opacity="0"/>
</linearGradient>
<linearGradient id="paint8_linear" x1="360.961" y1="86.0646" x2="360.961" y2="400.025" gradientUnits="userSpaceOnUse">
<stop stop-color="white"/>
<stop offset="1" stop-color="white" stop-opacity="0"/>
</linearGradient>
<linearGradient id="paint9_linear" x1="360.961" y1="86.0646" x2="360.961" y2="400.025" gradientUnits="userSpaceOnUse">
<stop stop-color="white"/>
<stop offset="1" stop-color="white" stop-opacity="0"/>
</linearGradient>
<linearGradient id="paint10_linear" x1="360.961" y1="86.0646" x2="360.961" y2="400.025" gradientUnits="userSpaceOnUse">
<stop stop-color="white"/>
<stop offset="1" stop-color="white" stop-opacity="0"/>
</linearGradient>
<linearGradient id="paint11_linear" x1="360.961" y1="86.0646" x2="360.961" y2="400.025" gradientUnits="userSpaceOnUse">
<stop stop-color="white"/>
<stop offset="1" stop-color="white" stop-opacity="0"/>
</linearGradient>
<linearGradient id="paint12_linear" x1="360.961" y1="86.0646" x2="360.961" y2="400.025" gradientUnits="userSpaceOnUse">
<stop stop-color="white"/>
<stop offset="1" stop-color="white" stop-opacity="0"/>
</linearGradient>
<linearGradient id="paint13_linear" x1="360.961" y1="86.0646" x2="360.961" y2="400.025" gradientUnits="userSpaceOnUse">
<stop stop-color="white"/>
<stop offset="1" stop-color="white" stop-opacity="0"/>
</linearGradient>
<linearGradient id="paint14_linear" x1="360.961" y1="86.0646" x2="360.961" y2="400.025" gradientUnits="userSpaceOnUse">
<stop stop-color="white"/>
<stop offset="1" stop-color="white" stop-opacity="0"/>
</linearGradient>
<linearGradient id="paint15_linear" x1="360.961" y1="86.0646" x2="360.961" y2="400.025" gradientUnits="userSpaceOnUse">
<stop stop-color="white"/>
<stop offset="1" stop-color="white" stop-opacity="0"/>
</linearGradient>
<linearGradient id="paint16_linear" x1="360.961" y1="86.0646" x2="360.961" y2="400.025" gradientUnits="userSpaceOnUse">
<stop stop-color="white"/>
<stop offset="1" stop-color="white" stop-opacity="0"/>
</linearGradient>
<linearGradient id="paint17_linear" x1="360.961" y1="86.0646" x2="360.961" y2="400.025" gradientUnits="userSpaceOnUse">
<stop stop-color="white"/>
<stop offset="1" stop-color="white" stop-opacity="0"/>
</linearGradient>
<linearGradient id="paint18_linear" x1="360.961" y1="86.0646" x2="360.961" y2="400.025" gradientUnits="userSpaceOnUse">
<stop stop-color="white"/>
<stop offset="1" stop-color="white" stop-opacity="0"/>
</linearGradient>
<linearGradient id="paint19_linear" x1="360.961" y1="86.0646" x2="360.961" y2="400.025" gradientUnits="userSpaceOnUse">
<stop stop-color="white"/>
<stop offset="1" stop-color="white" stop-opacity="0"/>
</linearGradient>
<linearGradient id="paint20_linear" x1="360.961" y1="86.0646" x2="360.961" y2="400.025" gradientUnits="userSpaceOnUse">
<stop stop-color="white"/>
<stop offset="1" stop-color="white" stop-opacity="0"/>
</linearGradient>
<linearGradient id="paint21_linear" x1="360.961" y1="86.0646" x2="360.961" y2="400.025" gradientUnits="userSpaceOnUse">
<stop stop-color="white"/>
<stop offset="1" stop-color="white" stop-opacity="0"/>
</linearGradient>
<linearGradient id="paint22_linear" x1="360.961" y1="86.0646" x2="360.961" y2="400.025" gradientUnits="userSpaceOnUse">
<stop stop-color="white"/>
<stop offset="1" stop-color="white" stop-opacity="0"/>
</linearGradient>
<linearGradient id="paint23_linear" x1="360.961" y1="86.0646" x2="360.961" y2="400.025" gradientUnits="userSpaceOnUse">
<stop stop-color="white"/>
<stop offset="1" stop-color="white" stop-opacity="0"/>
</linearGradient>
</defs>
</svg>
